<?xml version="1.0" encoding="UTF-8"?>
<svg xmlns="http://www.w3.org/2000/svg" width="242.645" height="76" viewBox="0 0 242.645 76">
  <path d="M242.838,149.985V135.716h3.124a20.767,20.767,0,0,1,4.3.3,5.825,5.825,0,0,1,2.178,1.026,5.975,5.975,0,0,1,1.878,2.429,8.469,8.469,0,0,1,.636,3.384,8.35,8.35,0,0,1-.636,3.366,6.082,6.082,0,0,1-1.878,2.425,5.893,5.893,0,0,1-2.133,1.026,16.491,16.491,0,0,1-3.72.3h-3.747Zm2.317-2.1h1.954a10.3,10.3,0,0,0,2.411-.211,3.525,3.525,0,0,0,1.4-.722,4.3,4.3,0,0,0,1.214-1.721,6.527,6.527,0,0,0,.408-2.393,6.435,6.435,0,0,0-.408-2.393,4.273,4.273,0,0,0-1.214-1.721,3.611,3.611,0,0,0-1.448-.722,11.738,11.738,0,0,0-2.64-.211h-1.676v10.1Zm-18.343,2.1V135.16l9.066,8.717c.246.246.5.511.753.789s.52.6.8.946V135.72h2.133v14.825l-9.241-8.878c-.246-.242-.484-.5-.717-.762s-.448-.547-.659-.838v9.922h-2.133Zm-3.787,0-1.618-3.67h-5.656l-1.658,3.67H211.66l6.906-14.825,6.9,14.825h-2.447Zm-6.413-5.606h3.98l-1.465-3.254c-.085-.206-.175-.444-.264-.717s-.184-.569-.273-.9c-.076.314-.161.6-.251.869s-.175.52-.264.744l-1.465,3.254ZM202.1,149.985V135.716h3.6a11.54,11.54,0,0,1,2.277.166,3.144,3.144,0,0,1,2.281,1.824,4.137,4.137,0,0,1,.368,1.748,3.279,3.279,0,0,1-.524,1.9,2.73,2.73,0,0,1-1.528,1.067,2.926,2.926,0,0,1,1.958,1.138,3.806,3.806,0,0,1,.717,2.371,4.429,4.429,0,0,1-.3,1.645,3.665,3.665,0,0,1-.856,1.322,3.244,3.244,0,0,1-1.452.838,12.131,12.131,0,0,1-2.909.242H202.11Zm2.277-1.936h.8a12.153,12.153,0,0,0,1.824-.1,2.379,2.379,0,0,0,.955-.341,1.906,1.906,0,0,0,.663-.757,2.343,2.343,0,0,0,.233-1.053,2.4,2.4,0,0,0-.282-1.188,1.955,1.955,0,0,0-.807-.789,2.8,2.8,0,0,0-.753-.246,6.815,6.815,0,0,0-1.129-.076h-1.5v4.549Zm0-6.306h.883a4.424,4.424,0,0,0,2.339-.453,1.693,1.693,0,0,0,.686-1.524,1.933,1.933,0,0,0-.632-1.645,4.24,4.24,0,0,0-2.393-.471h-.883v4.092Zm-17.043,8.242V135.716h3.124a20.768,20.768,0,0,1,4.3.3,5.825,5.825,0,0,1,2.178,1.026,5.974,5.974,0,0,1,1.878,2.429,8.469,8.469,0,0,1,.636,3.384,8.35,8.35,0,0,1-.636,3.366,6.082,6.082,0,0,1-1.878,2.425,5.893,5.893,0,0,1-2.133,1.026,16.491,16.491,0,0,1-3.72.3h-3.747Zm2.312-2.1H191.6a10.3,10.3,0,0,0,2.411-.211,3.525,3.525,0,0,0,1.4-.722,4.3,4.3,0,0,0,1.214-1.721,6.528,6.528,0,0,0,.408-2.393,6.435,6.435,0,0,0-.408-2.393,4.273,4.273,0,0,0-1.214-1.721,3.611,3.611,0,0,0-1.448-.722,11.738,11.738,0,0,0-2.64-.211h-1.676v10.1Zm-6.1,2.1-1.618-3.67h-5.656l-1.658,3.67h-2.433l6.906-14.825,6.9,14.825h-2.447Zm-6.413-5.606h3.98l-1.465-3.254c-.085-.206-.175-.444-.264-.717s-.184-.569-.273-.9c-.076.314-.161.6-.251.869s-.175.52-.264.744l-1.465,3.254Zm-5.32-1.5a7.246,7.246,0,0,1-2.232,5.288A7.739,7.739,0,0,1,167.1,149.8a7.6,7.6,0,0,1-2.9.565,7.767,7.767,0,0,1-2.94-.569,7.649,7.649,0,0,1-2.469-1.622,7.221,7.221,0,0,1-1.658-2.407,7.412,7.412,0,0,1,1.658-8.192,7.6,7.6,0,0,1,2.474-1.618,7.971,7.971,0,0,1,5.848,0,7.561,7.561,0,0,1,4.132,4.06,7.345,7.345,0,0,1,.569,2.868Zm-2.416,0a5.491,5.491,0,0,0-.394-2.057,5.355,5.355,0,0,0-1.134-1.734,5.032,5.032,0,0,0-1.672-1.152,5.1,5.1,0,0,0-2-.408,5.156,5.156,0,0,0-2,.4,5.022,5.022,0,0,0-1.69,1.161,5.169,5.169,0,0,0-1.129,1.721,5.5,5.5,0,0,0-.39,2.066,5.352,5.352,0,0,0,.39,2.044,5.262,5.262,0,0,0,1.129,1.721,5.005,5.005,0,0,0,1.685,1.161,5.129,5.129,0,0,0,2.008.4,5,5,0,0,0,1.981-.4,5.113,5.113,0,0,0,1.69-1.161,5.339,5.339,0,0,0,1.528-3.769Zm-21.211.717v6.386H146.01V135.716h3.231a10,10,0,0,1,2.209.188,3.43,3.43,0,0,1,1.335.614,3.471,3.471,0,0,1,1.026,1.336,4.431,4.431,0,0,1,.359,1.793,4.016,4.016,0,0,1-.829,2.684A3.647,3.647,0,0,1,150.9,143.5l4.907,6.494h-2.613l-4.75-6.386h-.26Zm.139-1.8h.421a4.639,4.639,0,0,0,2.442-.43,1.739,1.739,0,0,0,.605-1.519,1.931,1.931,0,0,0-.65-1.658,4.246,4.246,0,0,0-2.4-.484h-.421V141.8Zm-13.812,8.183V135.716h3.6a11.54,11.54,0,0,1,2.277.166,3.144,3.144,0,0,1,2.281,1.824,4.138,4.138,0,0,1,.367,1.748,3.279,3.279,0,0,1-.524,1.9,2.73,2.73,0,0,1-1.528,1.067,2.926,2.926,0,0,1,1.958,1.138,3.806,3.806,0,0,1,.717,2.371,4.429,4.429,0,0,1-.3,1.645,3.665,3.665,0,0,1-.856,1.322,3.244,3.244,0,0,1-1.452.838,12.13,12.13,0,0,1-2.909.242h-3.617Zm2.277-1.936h.8a12.153,12.153,0,0,0,1.824-.1,2.379,2.379,0,0,0,.955-.341,1.906,1.906,0,0,0,.663-.757,2.343,2.343,0,0,0,.233-1.053,2.4,2.4,0,0,0-.282-1.188,1.955,1.955,0,0,0-.807-.789,2.8,2.8,0,0,0-.753-.246,6.813,6.813,0,0,0-1.129-.076h-1.5v4.549Zm0-6.306h.883a4.424,4.424,0,0,0,2.339-.453,1.693,1.693,0,0,0,.686-1.524,1.933,1.933,0,0,0-.632-1.645,4.24,4.24,0,0,0-2.393-.471h-.883v4.092Z" transform="translate(-74.162 -74.545)" fill="#6d6e70"></path>
  <g transform="translate(12.871)">
    <path d="M311.928,33.843V47.628h-4.7v-30.8h6.978a21.764,21.764,0,0,1,4.768.4,7.049,7.049,0,0,1,5.1,4.208,9.524,9.524,0,0,1,.775,3.868A8.668,8.668,0,0,1,323.06,31.1a7.877,7.877,0,0,1-5.275,2.514L328.38,47.633h-5.642L312.488,33.848h-.56Zm.3-3.877h.91q3.973,0,5.275-.928a3.753,3.753,0,0,0,1.309-3.28,4.182,4.182,0,0,0-1.4-3.581q-1.4-1.042-5.185-1.04h-.91Zm-27.92,17.662v-30.8H301.5v4.262h-12.19V28.8H301.5v4.392h-12.19v9.949H301.5v4.482H284.308ZM240.2,16.831h4.948l5.831,15.551c.372,1.017.695,1.918.955,2.693s.488,1.492.681,2.16c.5-1.622,1-3.218,1.537-4.773.072-.193.121-.332.152-.394l6.18-16.438L267,32.387c.309.811.605,1.622.874,2.433s.533,1.636.766,2.46c.134-.632.332-1.322.569-2.084s.547-1.649.928-2.693l5.786-15.672h4.983l-11.925,32-7.027-17.572q-.464-1.176-.838-2.263c-.251-.717-.48-1.407-.677-2.048-.238.825-.475,1.6-.717,2.317s-.48,1.416-.73,2.075l-6.9,17.487-11.89-32Zm-2.075,15.461a15.664,15.664,0,0,1-4.818,11.423,16.644,16.644,0,0,1-5.364,3.509,16.435,16.435,0,0,1-6.261,1.219,16.8,16.8,0,0,1-6.346-1.228,16.438,16.438,0,0,1-5.329-3.5,15.568,15.568,0,0,1-3.576-5.2,16.5,16.5,0,0,1,0-12.45,15.725,15.725,0,0,1,3.576-5.239,16.327,16.327,0,0,1,5.342-3.491,16.861,16.861,0,0,1,6.332-1.2,16.677,16.677,0,0,1,6.3,1.2,16.328,16.328,0,0,1,8.918,8.761,15.861,15.861,0,0,1,1.228,6.194Zm-5.212,0a11.642,11.642,0,0,0-3.3-8.179,10.913,10.913,0,0,0-7.923-3.366,11.139,11.139,0,0,0-4.329.86,10.952,10.952,0,0,0-3.648,2.505,11.129,11.129,0,0,0-2.442,3.72,11.882,11.882,0,0,0-.838,4.459,11.44,11.44,0,0,0,3.281,8.134,10.917,10.917,0,0,0,3.639,2.505,11.038,11.038,0,0,0,4.338.86,10.755,10.755,0,0,0,4.28-.86,11.277,11.277,0,0,0,3.648-2.505,11.557,11.557,0,0,0,3.3-8.134ZM188.327,33.8V47.624h-4.7V16.831h7.565a24.063,24.063,0,0,1,4.961.367,7.736,7.736,0,0,1,2.77,1.215A7.273,7.273,0,0,1,201.2,21.3a9.647,9.647,0,0,1,.82,4.007,9.891,9.891,0,0,1-.82,4.042,6.952,6.952,0,0,1-2.277,2.9,7.64,7.64,0,0,1-2.77,1.2,24.874,24.874,0,0,1-4.961.359h-2.873Zm.3-4.092h1.286q4.168,0,5.557-.905a3.516,3.516,0,0,0,1.385-3.2,3.9,3.9,0,0,0-1.488-3.469c-.981-.668-2.805-1-5.454-1h-1.286v8.573Z" transform="translate(-114.072 -8.625)" fill="#0095da"></path>
    <path d="M28.72,49.107V18.31H45.907v4.266H33.717v7.708h12.19v4.392H33.717V44.63h12.19v4.477Z" transform="translate(-28.72 -10.104)" fill="#0095da"></path>
    <path d="M111.522,20.387c-.067-.287-.184-1.085-.332-2.384-.139-1.085-.26-1.985-.354-2.693a19.217,19.217,0,0,1-.65,2.541,20.876,20.876,0,0,1-1.058,2.59L99.4,40.253,89.679,20.033c-.408-.834-.762-1.631-1.058-2.411s-.556-1.551-.771-2.312a21.835,21.835,0,0,1-.193,2.451c-.112.856-.278,1.752-.493,2.68L83.176,38.748H77.61L86.4,0,97.378,23.465c.166.363.426.99.771,1.846s.762,1.932,1.255,3.2a39.925,39.925,0,0,1,1.681-4.056c.2-.444.354-.78.453-1.013L112.261,0l8.99,38.743h-5.615l-4.11-18.356Z" transform="translate(-55.7)" fill="#0095da"></path>
  </g>
  <path d="M0,115.335c80.883-21.453,161.762-22.363,242.645,0C166.066,99.2,85.062,99.65,0,115.335" transform="translate(0 -54.547)" fill="#0095da" fill-rule="evenodd"></path>
</svg>
