<?xml version="1.0" encoding="utf-8"?>
<!-- Generator: Adobe Illustrator 22.1.0, SVG Export Plug-In . SVG Version: 6.00 Build 0)  -->
<svg version="1.1" id="Layer_1" xmlns="http://www.w3.org/2000/svg" xmlns:xlink="http://www.w3.org/1999/xlink" x="0px" y="0px"
	 viewBox="0 0 158.7 69.1" style="enable-background:new 0 0 158.7 69.1;" xml:space="preserve">
<style type="text/css">
	.st0{fill:#FFDD00;}
	.st1{fill:#003E7E;}
	.st2{fill:none;stroke:#003E7E;stroke-width:0.9565;}
</style>
<path class="st0" d="M63,10.4c2.7,0.5,4.2,1.5,6.4,4.8c2.4,3.7,5.7,8.9,5.9,9.1c0.3,0.4,0.4,0.5,0.6,0.5c0.2,0,0.3,0,0.6-0.5
	c0.2-0.3,3.5-5.4,5.9-9.1c2.1-3.3,3.6-4.4,6.4-4.8c0.8-0.1,1.4-0.5,1.4-1.2c0-1.5-3-4.1-6.6-4.1c-0.8,0-1.2-0.4-1.5-0.9
	c-1-2.2-3.3-3.8-6.2-3.8c-3,0-5.3,1.5-6.3,3.8C69.4,4.6,69,5,68.1,5c-3.6,0-6.6,2.6-6.6,4.1C61.6,9.9,62.2,10.2,63,10.4L63,10.4z"/>
<path class="st1" d="M95.1,11.9c4.6,0,6.3,2.4,6.3,3.4c0,0.4-0.2,0.7-0.9,0.7c-3.3,0-5.4,2-7,4.5c-0.3,0.5-1.1,1.8-2.3,3.6H81
	c2-3.1,3.5-5.5,4-6.3C87.9,13.4,91.6,11.9,95.1,11.9L95.1,11.9z M95.7,24.2h10.4c0.9-1,1.7-1.4,2.9-1.4c0.9,0,1.1-0.5,1.1-0.9
	c0-1.2-2-3.1-5.7-3.1C101.7,18.8,98.5,19.9,95.7,24.2L95.7,24.2z M51.2,16c3.3,0,5.4,2,7,4.5c0.4,0.7,1.3,2,2.3,3.6h10.3
	c-1.5-2.3-3.2-5-4-6.3c-3-4.6-6.6-6.1-10.1-6.1c-4.6,0-6.3,2.4-6.3,3.4C50.3,15.7,50.6,16,51.2,16L51.2,16z M45.7,24.2h10.4
	c-2.8-4.4-6-5.4-8.7-5.4c-3.7,0-5.7,1.9-5.7,3.1c0,0.4,0.2,0.9,1.1,0.9C44,22.9,44.8,23.2,45.7,24.2L45.7,24.2z"/>
<polygon class="st1" points="0.7,29.9 4.5,29.9 10.7,39.6 17,29.9 20.8,29.9 20.8,50.3 17.2,50.3 17.2,35.7 10.7,45.3 10.6,45.3 
	4.2,35.7 4.2,50.3 0.7,50.3 0.7,29.9 "/>
<polygon class="st2" points="0.7,29.9 4.5,29.9 10.7,39.6 17,29.9 20.8,29.9 20.8,50.3 17.2,50.3 17.2,35.7 10.7,45.3 10.6,45.3 
	4.2,35.7 4.2,50.3 0.7,50.3 0.7,29.9 "/>
<polygon class="st1" points="26.2,29.9 29.8,29.9 29.8,50.3 26.2,50.3 26.2,29.9 "/>
<polygon class="st2" points="26.2,29.9 29.8,29.9 29.8,50.3 26.2,50.3 26.2,29.9 "/>
<path class="st1" d="M34.4,40.2L34.4,40.2c0-5.9,4.3-10.6,10.5-10.6c3.8,0,6,1.3,8,3.2l-2.3,2.7c-1.6-1.5-3.4-2.5-5.7-2.5
	c-3.9,0-6.7,3.2-6.7,7.2v0.1c0,4,2.8,7.3,6.7,7.3c2.5,0,4.1-1,5.9-2.7l2.3,2.3c-2.1,2.2-4.5,3.6-8.3,3.6
	C38.8,50.7,34.4,46.1,34.4,40.2L34.4,40.2z"/>
<path class="st2" d="M34.4,40.2L34.4,40.2c0-5.9,4.3-10.6,10.5-10.6c3.8,0,6,1.3,8,3.2l-2.3,2.7c-1.6-1.5-3.4-2.5-5.7-2.5
	c-3.9,0-6.7,3.2-6.7,7.2v0.1c0,4,2.8,7.3,6.7,7.3c2.5,0,4.1-1,5.9-2.7l2.3,2.3c-2.1,2.2-4.5,3.6-8.3,3.6
	C38.8,50.7,34.4,46.1,34.4,40.2L34.4,40.2z"/>
<path class="st1" d="M56.8,29.9H66c2.6,0,4.6,0.8,5.9,2c1.1,1.1,1.7,2.6,1.7,4.4v0.1c0,3.4-2,5.4-4.9,6.2l5.5,7.7H70l-5-7.1h-0.1
	h-4.4v7.1h-3.6V29.9L56.8,29.9z M65.7,40c2.6,0,4.2-1.3,4.2-3.4v-0.1c0-2.2-1.6-3.4-4.2-3.4h-5.2V40H65.7L65.7,40z"/>
<path class="st2" d="M56.8,29.9H66c2.6,0,4.6,0.8,5.9,2c1.1,1.1,1.7,2.6,1.7,4.4v0.1c0,3.4-2,5.4-4.9,6.2l5.5,7.7H70l-5-7.1h-0.1
	h-4.4v7.1h-3.6V29.9L56.8,29.9z M65.7,40c2.6,0,4.2-1.3,4.2-3.4v-0.1c0-2.2-1.6-3.4-4.2-3.4h-5.2V40H65.7L65.7,40z"/>
<path class="st1" d="M77,40.2L77,40.2c0-5.8,4.4-10.6,10.7-10.6c6.3,0,10.7,4.8,10.7,10.5v0.1c0,5.8-4.4,10.6-10.7,10.6
	C81.4,50.7,77,45.9,77,40.2L77,40.2z M94.7,40.2L94.7,40.2c0-4-2.9-7.3-6.9-7.3c-4.1,0-6.9,3.2-6.9,7.2v0.1c0,4,2.9,7.3,6.9,7.3
	C91.8,47.4,94.7,44.2,94.7,40.2L94.7,40.2z"/>
<path class="st2" d="M77,40.2L77,40.2c0-5.8,4.4-10.6,10.7-10.6c6.3,0,10.7,4.8,10.7,10.5v0.1c0,5.8-4.4,10.6-10.7,10.6
	C81.4,50.7,77,45.9,77,40.2L77,40.2z M94.7,40.2L94.7,40.2c0-4-2.9-7.3-6.9-7.3c-4.1,0-6.9,3.2-6.9,7.2v0.1c0,4,2.9,7.3,6.9,7.3
	C91.8,47.4,94.7,44.2,94.7,40.2L94.7,40.2z"/>
<polygon class="st1" points="106.7,33.2 100.2,33.2 100.2,29.9 116.8,29.9 116.8,33.2 110.3,33.2 110.3,50.3 106.7,50.3 106.7,33.2 
	"/>
<polygon class="st2" points="106.7,33.2 100.2,33.2 100.2,29.9 116.8,29.9 116.8,33.2 110.3,33.2 110.3,50.3 106.7,50.3 106.7,33.2 
	"/>
<polygon class="st1" points="120.6,29.9 135.7,29.9 135.7,33.1 124.2,33.1 124.2,38.4 134.4,38.4 134.4,41.6 124.2,41.6 124.2,47.1 
	135.9,47.1 135.9,50.3 120.6,50.3 120.6,29.9 "/>
<polygon class="st2" points="120.6,29.9 135.7,29.9 135.7,33.1 124.2,33.1 124.2,38.4 134.4,38.4 134.4,41.6 124.2,41.6 124.2,47.1 
	135.9,47.1 135.9,50.3 120.6,50.3 120.6,29.9 "/>
<polygon class="st1" points="140.1,29.9 143.7,29.9 143.7,47.1 154.5,47.1 154.5,50.3 140.1,50.3 140.1,29.9 "/>
<polygon class="st2" points="140.1,29.9 143.7,29.9 143.7,47.1 154.5,47.1 154.5,50.3 140.1,50.3 140.1,29.9 "/>
<path class="st1" d="M154.3,31.4L154.3,31.4c0-1.1,0.9-2.1,2.1-2.1c1.2,0,2.1,0.9,2.1,2.1v0c0,1.1-0.9,2.1-2.1,2.1
	C155.2,33.5,154.3,32.6,154.3,31.4L154.3,31.4z M158.2,31.4L158.2,31.4c0-1-0.8-1.9-1.9-1.9c-1.1,0-1.9,0.8-1.9,1.9v0
	c0,1,0.8,1.9,1.9,1.9C157.4,33.3,158.2,32.5,158.2,31.4L158.2,31.4z M155.5,30.3h1c0.3,0,0.5,0.1,0.7,0.2c0.1,0.1,0.2,0.3,0.2,0.5v0
	c0,0.3-0.2,0.6-0.5,0.7l0.6,0.8h-0.5l-0.5-0.8h0h-0.4v0.8h-0.4V30.3L155.5,30.3z M156.4,31.4c0.3,0,0.4-0.1,0.4-0.3v0
	c0-0.2-0.2-0.3-0.4-0.3h-0.5v0.7H156.4L156.4,31.4z"/>
<polygon class="st1" points="35.7,64.4 31.6,58.2 34,58.2 36.7,62.6 39.4,58.2 41.6,58.2 37.6,64.4 37.6,68.5 35.7,68.5 35.7,64.4 
	"/>
<path class="st1" d="M114.2,58.1h-1.8l-4.6,10.4h2.1l1-2.4l4.6,0l1,2.4h2.2L114.2,58.1L114.2,58.1z M114.9,64.3h-3.2l1.6-3.7
	L114.9,64.3L114.9,64.3z"/>
<path class="st1" d="M90.4,58.2h-3.9v10.3h3.9c3.4,0,5.5-2.3,5.5-5.2C95.9,60.8,94.1,58.2,90.4,58.2 M90.4,66.7h-1.9V60h1.9
	c2.1,0,3.4,1.4,3.4,3.4C93.8,65.2,92.5,66.7,90.4,66.7"/>
<polygon class="st1" points="68.8,62.3 66.3,58.2 64,58.2 67.8,64.2 67.8,68.5 69.8,68.5 69.8,64.2 73.6,58.2 71.3,58.2 68.8,62.3 
	"/>
<polygon class="st1" points="60.2,68.6 63.2,58.2 61.1,58.2 59.2,65.3 57,58.2 55.1,58.2 52.8,65.3 50.9,58.2 48.8,58.2 51.9,68.6 
	53.6,68.6 56,61.2 58.4,68.6 60.2,68.6 "/>
<polygon class="st1" points="81.9,65 76.6,58.2 74.8,58.2 74.8,68.5 76.8,68.5 76.8,61.5 82.2,68.5 83.8,68.5 83.8,58.2 81.9,58.2 
	81.9,65 "/>
<polygon class="st1" points="106.4,68.5 106.4,58.2 104.5,58.2 104.5,62.4 99.8,62.4 99.8,58.2 97.8,58.2 97.8,68.5 99.8,68.5 
	99.8,64.2 104.5,64.2 104.5,68.5 106.4,68.5 "/>
<polygon class="st1" points="125.1,62.9 122.1,58.2 120,58.2 120,68.5 122,68.5 122,61.5 125,66 125.1,66 128.2,61.5 128.2,68.5 
	130.2,68.5 130.2,58.2 128.1,58.2 125.1,62.9 "/>
<path class="st1" d="M30.9,60.8c0,1.2-0.7,1.9-1.5,2.3c1.2,0.4,2,1.1,2,2.5c0,1.8-1.5,2.9-3.8,2.9h-4.8V58.2h4.6
	C29.9,58.2,30.9,59.4,30.9,60.8 M28.9,61.2c0-0.7-0.5-1.2-1.7-1.2h-2.2v2.5h2.2C28.3,62.4,28.9,61.9,28.9,61.2 M29.5,65.5
	c0-0.7-0.5-1.3-1.9-1.3h-2.6v2.5h2.6C28.9,66.7,29.5,66.2,29.5,65.5"/>
</svg>
