<?xml version="1.0" encoding="UTF-8"?> <svg xmlns="http://www.w3.org/2000/svg" xmlns:xlink="http://www.w3.org/1999/xlink" id="Layer_1" version="1.1" viewBox="0 0 1607.12 339.78"><defs><style> .st0 { fill: #1b2938; } .st1 { fill: url(#New_Gradient_Swatch_copy); } .st2 { fill: url(#linear-gradient2); } .st3 { fill: url(#linear-gradient1); } .st4 { fill: #1b1b1b; } .st5 { fill: url(#linear-gradient); } </style><linearGradient id="linear-gradient" x1="33.2" y1="156.41" x2="232.67" y2="338.27" gradientUnits="userSpaceOnUse"><stop offset=".45" stop-color="#1d2c39"></stop><stop offset=".53" stop-color="#192430"></stop><stop offset=".72" stop-color="#12161f"></stop><stop offset=".87" stop-color="#10111a"></stop></linearGradient><linearGradient id="linear-gradient1" x1="258.05" y1="140.26" x2="258.05" y2=".2" gradientUnits="userSpaceOnUse"><stop offset=".65" stop-color="#f8bc18"></stop><stop offset=".84" stop-color="#f49d23"></stop><stop offset="1" stop-color="#f1802e"></stop></linearGradient><linearGradient id="linear-gradient2" x1="472.53" y1="213.05" x2="273.59" y2="24.95" gradientUnits="userSpaceOnUse"><stop offset=".38" stop-color="#1d2c39"></stop><stop offset=".53" stop-color="#17212c"></stop><stop offset=".77" stop-color="#11151f"></stop><stop offset=".99" stop-color="#10121b"></stop></linearGradient><linearGradient id="New_Gradient_Swatch_copy" data-name="New Gradient Swatch copy" x1="1260.65" y1="698.15" x2="1260.65" y2="558.1" gradientTransform="translate(1526.77 895.75) rotate(-180)" gradientUnits="userSpaceOnUse"><stop offset=".65" stop-color="#f8bc18"></stop><stop offset=".84" stop-color="#f49d23"></stop><stop offset="1" stop-color="#f1802e"></stop></linearGradient></defs><g><path class="st0" d="M690.84,2.43c50.3,0,82.08,32.21,82.08,77.22s-31.99,77.23-82.08,77.23h-68.4V2.43h68.4ZM690.84,121.79c22.06,0,38.17-17.87,38.17-42.14s-15.44-42.14-38.17-42.14h-24.49v84.28h24.49Z"></path><path class="st0" d="M914.12,2.43v34.64h-80.31v25.82h69.28v33.54h-69.28v25.81h80.31v34.64h-124.22V2.43h124.22Z"></path><path class="st0" d="M935.51,2.43h77.22c35.96,0,58.03,24.05,58.25,54.94.22,30.23-21.62,54.72-58.03,54.72h-33.54v44.79h-43.91V2.43ZM1009.2,77c13.24,0,19.86-9.27,19.86-19.64s-6.84-19.86-19.86-19.86h-29.79v39.5h29.79Z"></path><path class="st0" d="M1081.57,80.09c0-48.09,38.39-79.43,84.06-79.65,32.87,0,56.04,15,67.29,31.33l-29.34,21.62c-6.4-8.6-16.77-17.65-35.74-17.65-22.72,0-42.36,17.43-42.36,44.34s19.2,43.47,42.14,43.47,31.77-10.37,36.85-18.09l28.24,19.64c-8.16,14.34-30.23,33.98-67.07,33.98-46.11,0-84.06-30.23-84.06-78.99Z"></path><path class="st0" d="M1326.26,0c48.1,0,84.06,35.08,83.84,79.21-.22,44.79-35.96,80.31-83.84,80.09-48.1-.22-84.06-35.96-84.06-80.09S1278.16,0,1326.26,0ZM1326.26,122.01c22.06,0,39.94-18.97,39.94-42.8s-17.87-41.7-39.94-41.7-40.16,18.31-40.16,41.7,17.87,42.8,40.16,42.8Z"></path><path class="st0" d="M1428.85,2.43h44.35l44.57,66.63,45.01-66.63h44.35v154.45h-43.91v-84.28l-45.45,69.06-45.01-68.84v84.06h-43.91V2.43Z"></path></g><path class="st0" d="M622.38,337.47v-146.68h66.43c30.59,0,51.76,21.16,51.76,48.82s-19.7,48.82-51.55,48.82h-37.93v49.03h-28.71ZM651.09,264.97h34.16c18.65,0,27.66-11.11,27.66-25.35,0-15.3-10.06-25.36-27.66-25.36h-34.16v50.71Z"></path><path class="st0" d="M828.15,188.69c44.01,0,78.37,32.9,78.37,75.02s-34.79,76.07-78.37,76.07-78.37-34.16-78.37-76.07,34.79-75.02,78.37-75.02ZM828.15,315.05c27.45,0,49.66-23.47,49.66-51.34s-22.21-50.5-49.66-50.5-49.66,22.63-49.66,50.5,22.21,51.34,49.66,51.34Z"></path><path class="st0" d="M904.33,190.79h25.71l33.18,105.61,33.36-105.61h25.71l33.18,105.61,33.36-105.61h25.71l-46.12,146.68h-25.89l-33.18-106.03-33.18,106.03h-25.89l-45.94-146.68Z"></path><path class="st0" d="M1238.31,190.79v23.26h-82.77v38.77h71.87v22.63h-71.87v38.76h82.77v23.26h-111.48v-146.68h111.48Z"></path><path class="st0" d="M1259.88,337.47v-146.68h70.62c30.6,0,51.76,21.16,51.76,48.82,0,20.75-12.57,38.97-33.11,45.26l37.09,52.6h-32.69l-34.58-49.03h-30.38v49.03h-28.71ZM1288.59,264.97h38.14c18.86-.21,27.87-11.11,27.87-25.35,0-15.3-10.06-25.36-27.87-25.36h-38.14v50.71Z"></path><g><path class="st5" d="M221.08,264.49l-37.73,54.19c-.3.36-.54.78-.84,1.14-7.57,10.81-20.19,17.9-34.42,17.9H0l57.25-156.2L113,17.57l108.08,246.92Z"></path><path class="st3" d="M376.09.13c-14.18,0-26.68,6.97-34.27,17.6-.42.48-.72.96-1.02,1.44l-39.13,56.05-57.67,82.61L141.13,9.82c-2.84-4.09.08-9.69,5.07-9.69h229.89Z"></path><path class="st2" d="M471.27,147.47C499.75,66.1,456.87.13,375.5.13h.59,0c-14.18,0-26.68,6.97-34.27,17.6-.42.48-.72.96-1.02,1.44l-39.13,56.05,109.07,245.06,60.72-173.48"></path><path class="st1" d="M148.08,337.73c14.18,0,26.68-6.97,34.27-17.6.42-.48.72-.96,1.02-1.44l39.13-56.05,57.67-82.61,102.87,148.01c2.84,4.09-.08,9.69-5.07,9.69h-229.89Z"></path></g><g><path class="st4" d="M1405.15,337.47v-20.2h-7.24v-3.69h18.66v3.69h-7.23v20.2h-4.19Z"></path><path class="st4" d="M1440.74,337.47v-18.09l-7.34,18.09h-1.79l-7.31-18.09v18.09h-4.19v-23.89h5.91l6.48,16.08,6.52-16.08h5.91v23.89h-4.19Z"></path></g></svg> 