<?xml version="1.0" encoding="utf-8"?>
<!-- Generator: Adobe Illustrator 25.4.1, SVG Export Plug-In . SVG Version: 6.00 Build 0)  -->
<svg version="1.1" id="Layer_1" xmlns="http://www.w3.org/2000/svg" xmlns:xlink="http://www.w3.org/1999/xlink" x="0px" y="0px"
	 viewBox="0 0 657.5 163.9" style="enable-background:new 0 0 657.5 163.9;" xml:space="preserve">
<style type="text/css">
	.st0{enable-background:new    ;}
	.st1{fill:#00704A;}
	.st2{fill:#87939B;}
</style>
<g>
	<g class="st0">
		<path class="st1" d="M16.3,163v-40H0v-9.1h45.5v9.1H29.3v40H16.3z"/>
		<path class="st1" d="M53.1,163v-49.2h12.7V163H53.1z"/>
		<path class="st1" d="M77.7,163v-49.2h10.9l15.8,19.8l15.9-19.8H131V163H119v-30.5l-14.6,18l-14.5-18V163H77.7z"/>
		<path class="st1" d="M142.6,163v-49.2h10.9l15.8,19.8l15.9-19.8H196V163h-12.1v-30.5l-14.6,18l-14.5-18V163H142.6z"/>
		<path class="st1" d="M205.1,138.4c0-3.7,0.6-7,1.9-10.1c1.3-3.1,3.2-5.9,5.8-8.3c2.5-2.3,5.3-4.1,8.5-5.2
			c3.1-1.1,6.7-1.7,10.5-1.7c3.9,0,7.5,0.6,10.6,1.7c3.2,1.2,6,2.9,8.5,5.2c2.5,2.4,4.5,5.2,5.8,8.3c1.3,3.1,2,6.5,2,10.1
			c0,3.6-0.6,7-2,10.1c-1.3,3.1-3.2,5.9-5.8,8.2c-2.5,2.3-5.4,4.1-8.5,5.3c-3.2,1.2-6.7,1.8-10.6,1.8c-3.9,0-7.4-0.6-10.5-1.8
			s-6-2.9-8.5-5.3c-2.5-2.4-4.4-5.1-5.8-8.2S205.1,142.1,205.1,138.4z M217.8,138.4c0,4.4,1.3,8,4,10.8s6,4.2,10.1,4.2
			c4.1,0,7.5-1.4,10.1-4.2s4-6.4,4-10.8c0-4.4-1.3-8-4-10.9s-6-4.2-10.1-4.2c-4.1,0-7.4,1.4-10.1,4.2S217.8,134,217.8,138.4z"/>
		<path class="st1" d="M279.9,132.1V163h-12.2v-49.2h10.8l26.4,29.3v-29.3h12.2V163h-9.6L279.9,132.1z"/>
		<path class="st1" d="M327.9,159.1v-10.9c3.7,2.3,6.8,3.9,9.4,4.8s5,1.4,7.4,1.4c2.4,0,4.2-0.4,5.5-1.1s1.9-1.8,1.9-3.3
			c0-1.2-0.4-2.1-1.2-2.8s-2.6-1.6-5.4-2.5c-7-2.5-11.8-5-14.5-7.5s-4-5.8-4-9.8c0-4.2,1.7-7.6,5.1-10.2s7.9-3.9,13.4-3.9
			c2.8,0,5.6,0.3,8.4,1s5.6,1.7,8.3,3v10.1c-3.3-1.7-6.3-2.9-8.9-3.7s-5-1.2-7.2-1.2c-2.3,0-4.1,0.3-5.4,1s-1.9,1.6-1.9,2.9
			c0,1,0.5,2,1.6,2.9s2.8,1.8,5,2.6c0.5,0.2,1.2,0.5,2.1,0.8c4.7,1.7,8,3.2,10.1,4.5c2.1,1.3,3.7,3,4.8,5.1s1.6,4.5,1.6,7.2
			c0,4.5-1.7,8.1-5.1,10.7s-8.2,3.9-14.3,3.9c-3,0-6-0.4-8.8-1.2S330.5,160.7,327.9,159.1z"/>
		<path class="st1" d="M440.1,157.2c-3,2.2-6.2,3.9-9.5,5s-7,1.6-11.1,1.6c-3.9,0-7.4-0.6-10.6-1.8s-6-2.9-8.4-5.1
			c-2.5-2.4-4.4-5.1-5.7-8.3s-2-6.6-2-10.2c0-7.7,2.5-13.8,7.6-18.5s11.9-7,20.3-7c3.1,0,6.1,0.4,9.1,1.1s6.1,1.9,9.2,3.4v10.8
			c-3.3-1.7-6.4-2.9-9.3-3.7s-5.7-1.2-8.3-1.2c-5,0-8.9,1.4-11.7,4s-4.2,6.4-4.2,11.1c0,4.6,1.4,8.3,4,11s6.3,4.1,10.9,4.1
			c1.2,0,2.4-0.1,3.6-0.4s2.4-0.6,3.6-1.1v-6.2h-6.8v-9.2h19.3L440.1,157.2L440.1,157.2z"/>
		<path class="st1" d="M450.9,163v-49.2H469c6.7,0,11.6,1.2,14.8,3.5s4.8,5.9,4.8,10.8c0,2.7-0.7,5-2.1,7s-3.6,3.6-6.5,4.9
			c1.2,0.5,2.3,1.2,3.3,2.2s1.8,2.4,2.5,4l7.8,16.8h-13.9l-6.3-14.2c-1-2.2-2.2-3.8-3.5-4.6s-3.1-1.3-5.5-1.3c-0.2,0-0.4,0-0.7,0
			s-0.5,0-0.7,0v20L450.9,163L450.9,163z M469.1,134c2.3,0,4-0.5,5.1-1.4s1.7-2.4,1.7-4.3c0-1.9-0.6-3.3-1.7-4.2s-2.8-1.5-5-1.5
			h-5.9V134H469.1z"/>
		<path class="st1" d="M497.1,138.4c0-3.7,0.6-7,1.9-10.1s3.2-5.9,5.8-8.3c2.5-2.3,5.3-4.1,8.5-5.2s6.7-1.7,10.5-1.7
			c3.9,0,7.5,0.6,10.6,1.7c3.2,1.2,6,2.9,8.5,5.2c2.5,2.4,4.5,5.2,5.8,8.3s2,6.5,2,10.1c0,3.6-0.7,7-2,10.1s-3.2,5.9-5.8,8.2
			c-2.5,2.3-5.3,4.1-8.5,5.3s-6.7,1.8-10.6,1.8c-3.8,0-7.3-0.6-10.5-1.8s-6-2.9-8.5-5.3c-2.5-2.4-4.5-5.1-5.8-8.2
			S497.1,142.1,497.1,138.4z M509.8,138.4c0,4.4,1.3,8,4,10.8s6,4.2,10.1,4.2c4.1,0,7.5-1.4,10.1-4.2s4-6.4,4-10.8
			c0-4.4-1.3-8-4-10.9s-6-4.2-10.1-4.2c-4.1,0-7.5,1.4-10.1,4.2S509.8,134,509.8,138.4z"/>
		<path class="st1" d="M605.9,113.8v28.2c0,6.9-2,12.3-6.1,16.1s-9.8,5.8-17.1,5.8c-7.3,0-13-1.9-17.1-5.8s-6.1-9.2-6.1-16.1v-28.2
			h12.4v27.7c0,3.9,0.9,6.9,2.8,9s4.6,3.1,8.2,3.1c3.5,0,6.2-1,8.1-3.1s2.8-5.1,2.8-9v-27.7H605.9z"/>
	</g>
	<g class="st0">
		<path class="st1" d="M619.8,163v-49.2h18.1c6.7,0,11.6,1.2,14.8,3.6s4.8,6.1,4.8,11.1c0,5.1-1.7,8.9-5.1,11.5s-8.6,3.8-15.4,3.8
			h-4.8V163H619.8z M638,134.2c2.3,0,4-0.5,5.2-1.4s1.7-2.3,1.7-4.2c0-1.8-0.6-3.2-1.8-4.2s-2.8-1.5-5-1.5h-5.9v11.2L638,134.2
			L638,134.2z"/>
	</g>
	<g>
		<g>
			<path class="st2" d="M356.2,65c0,10.5-10.2,19-22.9,19c-12.6,0-22.9-8.5-22.9-19c0-10.5,10.2-19,22.9-19S356.2,54.5,356.2,65z"/>
		</g>
		<g>
			<path class="st2" d="M202.3,68.6c0,3.5-3.4,6.3-7.6,6.3s-7.6-2.8-7.6-6.3c0-3.5,3.4-6.3,7.6-6.3
				C198.9,62.4,202.3,65.2,202.3,68.6z"/>
		</g>
		<g>
			<path class="st2" d="M231,43.5c0,4.1-4,7.5-9,7.5c-5,0-9-3.4-9-7.5c0-4.1,4-7.5,9-7.5C227,36,231,39.4,231,43.5z"/>
		</g>
		<g>
			<path class="st2" d="M265.1,27c0,4.7-4.6,8.5-10.2,8.5c-5.6,0-10.2-3.8-10.2-8.5s4.6-8.5,10.2-8.5
				C260.6,18.5,265.1,22.3,265.1,27z"/>
		</g>
		<g>
			<path class="st2" d="M297,13.3c0,4.8-4.7,8.7-10.5,8.7c-5.8,0-10.5-3.9-10.5-8.7s4.7-8.7,10.5-8.7C292.4,4.6,297,8.5,297,13.3z"
				/>
		</g>
		<g>
			<path class="st2" d="M333.6,9.9c0,5.5-5.4,9.9-12,9.9s-12-4.4-12-9.9c0-5.5,5.4-9.9,12-9.9C328.2,0,333.6,4.5,333.6,9.9z"/>
		</g>
		<g>
			<path class="st2" d="M368,12.1c0,6.1-5.9,11-13.3,11c-7.3,0-13.3-4.9-13.3-11c0-6.1,5.9-11,13.3-11C362.1,1.1,368,6,368,12.1z"/>
		</g>
		<g>
			<path class="st2" d="M402.8,23.6c0,6.8-6.6,12.2-14.7,12.2c-8.1,0-14.7-5.5-14.7-12.2s6.6-12.2,14.7-12.2
				C396.2,11.3,402.8,16.8,402.8,23.6z"/>
		</g>
		<g>
			<path class="st2" d="M435.3,39.6c0,7.9-7.7,14.3-17.3,14.3s-17.3-6.4-17.3-14.3s7.7-14.3,17.3-14.3
				C427.6,25.3,435.3,31.7,435.3,39.6z"/>
		</g>
		<g>
			<path class="st2" d="M465.9,62.5c0,8.3-8.1,15-18.1,15s-18.1-6.7-18.1-15c0-8.3,8.1-15,18.1-15C457.8,47.5,465.9,54.2,465.9,62.5
				z"/>
		</g>
	</g>
</g>
</svg>
